<svg xmlns="http://www.w3.org/2000/svg" xmlns:xlink="http://www.w3.org/1999/xlink" viewBox="0 0 1024 1024">
  <defs>
    <style>
      .cls-1 {
      fill: url(#linear-gradient);
      }

      .cls-1, .cls-2, .cls-3, .cls-4, .cls-5, .cls-6, .cls-7, .cls-8 {
      stroke-width: 0px;
      }

      .cls-2 {
      fill: url(#radial-gradient-2);
      }

      .cls-2, .cls-4 {
      mix-blend-mode: multiply;
      }

      .cls-9 {
      isolation: isolate;
      }

      .cls-4 {
      fill: url(#radial-gradient);
      }

      .cls-5 {
      fill: none;
      }

      .cls-10 {
      filter: url(#drop-shadow-1);
      }

      .cls-6 {
      fill: url(#linear-gradient-2);
      }

      .cls-7 {
      fill: url(#linear-gradient-3);
      }

      .cls-11 {
      clip-path: url(#clippath);
      }

      .cls-8 {
      fill: #ffc225;
      }
    </style>
    <clipPath id="clippath">
      <path id="Clipping_Mask" data-name="Clipping Mask" class="cls-5" d="M873.75,642h-126.04c-20.09-56.72-60.07-104.02-111.55-133.54-7.29-4.18-14.81-8-22.54-11.44-31.05-13.83-65.44-21.52-101.62-21.52-32.58,0-59-26.42-59-59s25.6-58.17,57.48-58.98c.51-.02,1.01-.02,1.52-.02,43.92,0,83.56-18.33,111.69-47.75,26.52-27.74,42.81-65.35,42.81-106.75,0-85.33-69.17-154.5-154.5-154.5s-154.01,68.49-154.5,153.6c-.17,30.82,8.68,59.58,24.08,83.77,9.32,14.64,9.12,33.38-.17,48.04-15.14,23.89-23.91,52.22-23.91,82.59,0,34.45,11.27,66.27,30.34,91.96,27.64,37.26,71.65,61.65,121.4,62.51.92.02,1.84.03,2.76.03.81,0,1.62,0,2.43.02.52,0,1.04.01,1.56.03,65.2,1.65,120.37,43.7,141.4,102.06-9.66,12.9-15.39,28.88-15.39,46.14v90.06c-27.22,42.31-74.59,70.32-128.94,70.69-73.87.49-135.82-50.85-151.65-119.79-4.68-20.41-23.09-34.71-44.03-34.71h-55.38c0,137.2,110.52,248.59,247.39,249.98.87.01,1.74.02,2.61.02s1.74-.01,2.61-.02c55.28-.57,106.27-19.07,147.41-49.98,14.16,15.64,34.6,25.5,57.23,25.5h154.5c42.49,0,77.25-34.76,77.25-77.25v-154.5c0-42.49-34.76-77.25-77.25-77.25ZM416.5,203c0-52.74,42.76-95.5,95.5-95.5s95.5,42.76,95.5,95.5c0,28.83-12.78,54.67-32.97,72.18-16.76,14.53-38.62,23.32-62.53,23.32s-45.77-8.79-62.53-23.32c-20.19-17.51-32.97-43.35-32.97-72.18Z"/>
    </clipPath>
    <linearGradient id="linear-gradient" x1="337.26" y1="835.14" x2="767.86" y2="696.87" gradientUnits="userSpaceOnUse">
      <stop offset="0" stop-color="#9acd32"/>
      <stop offset="0" stop-color="#9acd32"/>
      <stop offset=".21" stop-color="#b0e349"/>
      <stop offset=".43" stop-color="#bff259"/>
      <stop offset=".67" stop-color="#c9fc62"/>
      <stop offset="1" stop-color="#cf6"/>
    </linearGradient>
    <radialGradient id="radial-gradient" cx="406.93" cy="806.21" fx="34.77" fy="766.63" r="374.26" gradientUnits="userSpaceOnUse">
      <stop offset=".75" stop-color="#999" stop-opacity="0"/>
      <stop offset=".9" stop-color="#000" stop-opacity=".5"/>
    </radialGradient>
    <linearGradient id="linear-gradient-2" x1="366.15" y1="517.66" x2="693.71" y2="850.7" gradientUnits="userSpaceOnUse">
      <stop offset="0" stop-color="#1e9eff"/>
      <stop offset=".36" stop-color="#51bfff"/>
      <stop offset=".49" stop-color="#6cf"/>
      <stop offset="1" stop-color="#cf6"/>
    </linearGradient>
    <radialGradient id="radial-gradient-2" cx="744.48" cy="667.27" fx="663.81" fy="690.62" r="457.83" gradientUnits="userSpaceOnUse">
      <stop offset=".75" stop-color="#999" stop-opacity="0"/>
      <stop offset=".9" stop-color="#000" stop-opacity=".5"/>
      <stop offset="1" stop-color="#000"/>
    </radialGradient>
    <linearGradient id="linear-gradient-3" x1="432.75" y1="172.26" x2="632.99" y2="519.67" gradientUnits="userSpaceOnUse">
      <stop offset="0" stop-color="#6cf"/>
      <stop offset="1" stop-color="#1e90ff"/>
    </linearGradient>
    <filter id="drop-shadow-1" filterUnits="userSpaceOnUse">
      <feOffset dx="0" dy="0"/>
      <feGaussianBlur result="blur" stdDeviation="20"/>
      <feFlood flood-color="#000" flood-opacity=".5"/>
      <feComposite in2="blur" operator="in"/>
      <feComposite in="SourceGraphic"/>
    </filter>
  </defs>
  <g class="cls-9">
    <g id="Colour">
      <g class="cls-11">
        <g id="Color">
          <path id="Bottom" class="cls-1" d="M714.25,773.25c0,110.83-89.14,200.83-199.64,202.23-.87.01-1.74.02-2.61.02s-1.74-.01-2.61-.02c-136.87-1.39-247.39-112.78-247.39-249.98h55.38c20.94,0,39.35,14.3,44.03,34.71,15.82,68.95,77.78,120.28,151.64,119.79,85.64-.57,153.95-69.8,153.44-155.44-.5-83.57-67.34-151.39-150.51-153.51,109.86,2.12,198.26,91.83,198.26,202.2Z"/>
          <path id="Bottom_Shadow" data-name="Bottom Shadow" class="cls-4" d="M714.25,773.25c0,110.83-89.14,200.83-199.64,202.23-.87.01-1.74.02-2.61.02s-1.74-.01-2.61-.02c-136.87-1.39-247.39-112.78-247.39-249.98h55.38c20.94,0,39.35,14.3,44.03,34.71,15.82,68.95,77.78,120.28,151.64,119.79,85.64-.57,153.95-69.8,153.44-155.44-.5-83.57-67.34-151.39-150.51-153.51,109.86,2.12,198.26,91.83,198.26,202.2Z"/>
          <path id="Middle" class="cls-6" d="M762,725.5c0,137.2-110.52,248.59-247.39,249.98,110.5-1.4,199.64-91.4,199.64-202.23s-88.4-200.08-198.26-202.2c-.52-.02-1.04-.03-1.56-.03-.81-.02-1.62-.02-2.43-.02-.92,0-1.84-.01-2.76-.03-46.32-1.18-85.31-31.86-98.86-73.95-3.33-10.32-5.13-21.34-5.13-32.77,0-58.45,46.97-105.93,105.23-106.73-31.88.81-57.48,26.91-57.48,58.98s26.42,59,59,59c36.18,0,70.57,7.69,101.62,21.52,7.73,3.44,15.25,7.26,22.54,11.44,75.19,43.11,125.84,124.16,125.84,217.04Z"/>
          <path id="Middle_Shadow" data-name="Middle Shadow" class="cls-2" d="M762,725.5c0,137.2-110.52,248.59-247.39,249.98,110.5-1.4,199.64-91.4,199.64-202.23s-88.4-200.08-198.26-202.2c-.52-.02-1.04-.03-1.56-.03-.81-.02-1.62-.02-2.43-.02-.92,0-1.84-.01-2.76-.03-46.32-1.18-85.31-31.86-98.86-73.95-3.33-10.32-5.13-21.34-5.13-32.77,0-58.45,46.97-105.93,105.23-106.73-31.88.81-57.48,26.91-57.48,58.98s26.42,59,59,59c36.18,0,70.57,7.69,101.62,21.52,7.73,3.44,15.25,7.26,22.54,11.44,75.19,43.11,125.84,124.16,125.84,217.04Z"/>
          <path id="Top" class="cls-7" d="M512,48.5c-85.11,0-154.01,68.49-154.5,153.6-.18,30.83,8.68,59.59,24.08,83.77,9.32,14.64,9.12,33.38-.18,48.04-15.14,23.89-23.91,52.22-23.91,82.59,0,34.45,11.27,66.27,30.34,91.96,27.64,37.26,71.65,61.65,121.4,62.51-46.32-1.18-85.31-31.86-98.86-73.95-3.33-10.32-5.13-21.34-5.13-32.77,0-58.45,46.97-105.93,105.23-106.73.51-.02,1.01-.02,1.52-.02,43.92,0,83.56-18.33,111.69-47.75,26.52-27.74,42.81-65.35,42.81-106.75,0-85.33-69.17-154.5-154.5-154.5ZM574.53,275.18c-16.76,14.53-38.62,23.32-62.53,23.32s-45.77-8.79-62.53-23.32c-20.19-17.51-32.97-43.35-32.97-72.18,0-52.74,42.76-95.5,95.5-95.5s95.5,42.76,95.5,95.5c0,28.83-12.78,54.67-32.97,72.18Z"/>
          <g id="Raw_Label" data-name="Raw Label" class="cls-10">
            <rect class="cls-8" x="642" y="642" width="309" height="309" rx="77.25" ry="77.25"/>
            <path class="cls-3" d="M846.81,886.12h-100.62v-179.25h96.62v25.5h-66.87v50.38h62v25.38h-62v52.5h70.87v25.5Z"/>
          </g>
        </g>
      </g>
    </g>
  </g>
</svg>
